<svg width="282" height="319" viewBox="0 0 282 319" fill="none" xmlns="http://www.w3.org/2000/svg">
<g opacity="0.6">
<path d="M157.163 90.6095L141.575 113.172L203.092 133.846C204.345 134.267 205.725 133.819 206.492 132.742L219.884 113.926C221.443 111.736 220.44 108.662 217.89 107.812L161.719 89.0884C160.031 88.5258 158.175 89.1457 157.163 90.6095Z" fill="url(#paint0_linear_524_16642)"/>
<path d="M128.157 90.6095L143.746 113.172L82.2283 133.846C80.9756 134.267 79.5949 133.819 78.8285 132.742L65.4366 113.926C63.8777 111.736 64.8802 108.662 67.4306 107.812L123.601 89.0884C125.289 88.5258 127.146 89.1457 128.157 90.6095Z" fill="url(#paint1_linear_524_16642)"/>
<path d="M142.617 112.651L78.4688 134.034L140.009 152.287L204.158 134.034L142.617 112.651Z" fill="url(#paint2_linear_524_16642)"/>
<path d="M74.8184 193.018V142.638C74.8184 138.034 79.1859 134.684 83.6323 135.877L137.181 150.244C138.352 150.557 139.583 150.562 140.756 150.258L196.441 135.788C200.874 134.636 205.201 137.983 205.201 142.563V192.97C205.201 196.063 203.171 198.789 200.208 199.676L144.21 216.431C140.792 217.454 137.146 217.438 133.737 216.384L79.7521 199.706C76.8188 198.8 74.8184 196.088 74.8184 193.018Z" fill="url(#paint3_linear_524_16642)"/>
<path d="M139.488 153.553V214.815C139.488 216.147 140.767 217.107 142.046 216.735L198.345 200.375C199.626 200.003 200.507 198.829 200.507 197.494V138.975C200.507 137.006 198.642 135.571 196.739 136.075L141.72 150.653C140.404 151.001 139.488 152.192 139.488 153.553Z" fill="url(#paint4_linear_524_16642)"/>
<path d="M125.385 177.263L141.053 150.201L78.0318 133.195C76.4142 132.759 74.696 133.377 73.7268 134.743L58.3095 156.486C56.7022 158.753 57.8391 161.927 60.52 162.659L120.871 179.118C122.622 179.596 124.476 178.834 125.385 177.263Z" fill="url(#paint5_linear_524_16642)"/>
<path d="M155.677 177.263L140.01 150.201L203.031 133.195C204.648 132.759 206.367 133.377 207.336 134.743L222.753 156.486C224.36 158.753 223.223 161.927 220.542 162.659L160.192 179.118C158.44 179.596 156.587 178.834 155.677 177.263Z" fill="url(#paint6_linear_524_16642)"/>
<path d="M136.356 132.814C147.389 121.44 161.336 106.889 150.516 90.7596C138.646 73.0667 124.906 74.7273 106.948 78.718C94.3987 81.5068 79.1303 75.3769 73.6673 64.014C69.0735 54.4587 67.7373 47.3213 67.7373 36.9658" stroke="#E5E5E5" stroke-width="2" stroke-linecap="round" stroke-dasharray="8 8"/>
<circle cx="70.124" cy="10.9522" r="10.9522" fill="url(#paint7_linear_524_16642)"/>
<circle cx="182.254" cy="55.2823" r="7.30144" fill="url(#paint8_linear_524_16642)"/>
</g>
<path d="M17.5436 289.13H18.4676L19.8676 292.658L21.2816 289.13H22.2196L20.4836 293.372L22.3876 297.866L25.9856 289.06H27.0496L22.8356 299H21.9676L19.8816 294.086L17.7816 299H16.9276L12.7276 289.06H13.7776L17.3896 297.866L19.2796 293.372L17.5436 289.13ZM30.4588 299.14C29.9361 299.14 29.4508 299.042 29.0028 298.846C28.5548 298.641 28.1675 298.365 27.8408 298.02C27.5141 297.665 27.2575 297.259 27.0708 296.802C26.8935 296.345 26.8048 295.855 26.8048 295.332C26.8048 294.651 26.9588 294.025 27.2668 293.456C27.5841 292.887 28.0181 292.434 28.5688 292.098C29.1195 291.753 29.7448 291.58 30.4448 291.58C31.1635 291.58 31.7888 291.753 32.3208 292.098C32.8621 292.443 33.2868 292.901 33.5948 293.47C33.9028 294.03 34.0568 294.646 34.0568 295.318C34.0568 295.393 34.0568 295.467 34.0568 295.542C34.0568 295.607 34.0521 295.659 34.0428 295.696H27.7988C27.8455 296.219 27.9901 296.685 28.2328 297.096C28.4848 297.497 28.8068 297.819 29.1988 298.062C29.6001 298.295 30.0341 298.412 30.5008 298.412C30.9768 298.412 31.4248 298.291 31.8448 298.048C32.2741 297.805 32.5728 297.488 32.7408 297.096L33.5668 297.32C33.4175 297.665 33.1888 297.978 32.8808 298.258C32.5728 298.538 32.2088 298.757 31.7888 298.916C31.3781 299.065 30.9348 299.14 30.4588 299.14ZM27.7708 295.01H33.1608C33.1235 294.478 32.9788 294.011 32.7268 293.61C32.4841 293.209 32.1621 292.896 31.7608 292.672C31.3688 292.439 30.9348 292.322 30.4588 292.322C29.9828 292.322 29.5488 292.439 29.1568 292.672C28.7648 292.896 28.4428 293.213 28.1908 293.624C27.9481 294.025 27.8081 294.487 27.7708 295.01ZM45.2259 299H44.2739V294.926C44.2739 294.105 44.1293 293.489 43.8399 293.078C43.5506 292.658 43.1353 292.448 42.5939 292.448C42.2393 292.448 41.8846 292.541 41.5299 292.728C41.1846 292.905 40.8766 293.153 40.6059 293.47C40.3446 293.778 40.1579 294.133 40.0459 294.534V299H39.0939V288.78H40.0459V293.358C40.3353 292.817 40.7366 292.387 41.2499 292.07C41.7726 291.743 42.3279 291.58 42.9159 291.58C43.3359 291.58 43.6906 291.655 43.9799 291.804C44.2786 291.953 44.5166 292.173 44.6939 292.462C44.8806 292.742 45.0159 293.073 45.0999 293.456C45.1839 293.829 45.2259 294.254 45.2259 294.73V299ZM46.6681 296.9C46.6681 296.443 46.7987 296.051 47.0601 295.724C47.3214 295.388 47.6807 295.131 48.1381 294.954C48.6047 294.767 49.1414 294.674 49.7481 294.674C50.1027 294.674 50.4714 294.702 50.8541 294.758C51.2367 294.814 51.5774 294.898 51.8761 295.01V294.394C51.8761 293.778 51.6941 293.288 51.3301 292.924C50.9661 292.56 50.4621 292.378 49.8181 292.378C49.4261 292.378 49.0387 292.453 48.6561 292.602C48.2827 292.742 47.8907 292.952 47.4801 293.232L47.1161 292.56C47.5921 292.233 48.0587 291.991 48.5161 291.832C48.9734 291.664 49.4401 291.58 49.9161 291.58C50.8121 291.58 51.5214 291.837 52.0441 292.35C52.5667 292.863 52.8281 293.573 52.8281 294.478V297.852C52.8281 297.983 52.8561 298.081 52.9121 298.146C52.9681 298.202 53.0567 298.235 53.1781 298.244V299C53.0754 299.009 52.9867 299.019 52.9121 299.028C52.8374 299.037 52.7814 299.037 52.7441 299.028C52.5107 299.019 52.3334 298.944 52.2121 298.804C52.0907 298.664 52.0254 298.515 52.0161 298.356L52.0021 297.824C51.6754 298.244 51.2507 298.571 50.7281 298.804C50.2054 299.028 49.6734 299.14 49.1321 299.14C48.6654 299.14 48.2407 299.042 47.8581 298.846C47.4847 298.641 47.1907 298.37 46.9761 298.034C46.7707 297.689 46.6681 297.311 46.6681 296.9ZM51.5541 297.46C51.6567 297.329 51.7361 297.203 51.7921 297.082C51.8481 296.961 51.8761 296.853 51.8761 296.76V295.696C51.5587 295.575 51.2274 295.481 50.8821 295.416C50.5461 295.351 50.2054 295.318 49.8601 295.318C49.1787 295.318 48.6281 295.453 48.2081 295.724C47.7881 295.995 47.5781 296.363 47.5781 296.83C47.5781 297.101 47.6481 297.357 47.7881 297.6C47.9281 297.833 48.1334 298.029 48.4041 298.188C48.6747 298.337 48.9921 298.412 49.3561 298.412C49.8134 298.412 50.2381 298.323 50.6301 298.146C51.0314 297.969 51.3394 297.74 51.5541 297.46ZM56.8362 299L53.8822 291.706H54.8762L57.3682 298.048L59.8742 291.706H60.8122L57.8582 299H56.8362ZM65.035 299.14C64.5123 299.14 64.027 299.042 63.579 298.846C63.131 298.641 62.7436 298.365 62.417 298.02C62.0903 297.665 61.8336 297.259 61.647 296.802C61.4696 296.345 61.381 295.855 61.381 295.332C61.381 294.651 61.535 294.025 61.843 293.456C62.1603 292.887 62.5943 292.434 63.145 292.098C63.6956 291.753 64.321 291.58 65.021 291.58C65.7396 291.58 66.365 291.753 66.897 292.098C67.4383 292.443 67.863 292.901 68.171 293.47C68.479 294.03 68.633 294.646 68.633 295.318C68.633 295.393 68.633 295.467 68.633 295.542C68.633 295.607 68.6283 295.659 68.619 295.696H62.375C62.4216 296.219 62.5663 296.685 62.809 297.096C63.061 297.497 63.383 297.819 63.775 298.062C64.1763 298.295 64.6103 298.412 65.077 298.412C65.553 298.412 66.001 298.291 66.421 298.048C66.8503 297.805 67.149 297.488 67.317 297.096L68.143 297.32C67.9936 297.665 67.765 297.978 67.457 298.258C67.149 298.538 66.785 298.757 66.365 298.916C65.9543 299.065 65.511 299.14 65.035 299.14ZM62.347 295.01H67.737C67.6996 294.478 67.555 294.011 67.303 293.61C67.0603 293.209 66.7383 292.896 66.337 292.672C65.945 292.439 65.511 292.322 65.035 292.322C64.559 292.322 64.125 292.439 63.733 292.672C63.341 292.896 63.019 293.213 62.767 293.624C62.5243 294.025 62.3843 294.487 62.347 295.01ZM79.8021 299H78.8501V294.926C78.8501 294.067 78.7241 293.442 78.4721 293.05C78.2201 292.649 77.8235 292.448 77.2821 292.448C76.9088 292.448 76.5401 292.541 76.1761 292.728C75.8121 292.905 75.4901 293.153 75.2101 293.47C74.9395 293.778 74.7435 294.133 74.6221 294.534V299H73.6701V291.706H74.5381V293.358C74.7341 293.003 74.9908 292.695 75.3081 292.434C75.6255 292.163 75.9848 291.953 76.3861 291.804C76.7875 291.655 77.2028 291.58 77.6321 291.58C78.0335 291.58 78.3741 291.655 78.6541 291.804C78.9341 291.953 79.1581 292.168 79.3261 292.448C79.4941 292.719 79.6155 293.05 79.6901 293.442C79.7648 293.825 79.8021 294.254 79.8021 294.73V299ZM84.9402 299.14C84.4176 299.14 83.9322 299.042 83.4842 298.846C83.0456 298.641 82.6629 298.365 82.3362 298.02C82.0189 297.665 81.7716 297.264 81.5942 296.816C81.4169 296.359 81.3282 295.878 81.3282 295.374C81.3282 294.851 81.4169 294.366 81.5942 293.918C81.7716 293.461 82.0236 293.059 82.3502 292.714C82.6769 292.359 83.0596 292.084 83.4982 291.888C83.9462 291.683 84.4316 291.58 84.9542 291.58C85.4769 291.58 85.9576 291.683 86.3962 291.888C86.8349 292.084 87.2176 292.359 87.5442 292.714C87.8709 293.059 88.1229 293.461 88.3002 293.918C88.4776 294.366 88.5662 294.851 88.5662 295.374C88.5662 295.878 88.4776 296.359 88.3002 296.816C88.1229 297.264 87.8709 297.665 87.5442 298.02C87.2269 298.365 86.8442 298.641 86.3962 298.846C85.9576 299.042 85.4722 299.14 84.9402 299.14ZM82.2942 295.388C82.2942 295.929 82.4109 296.424 82.6442 296.872C82.8869 297.311 83.2089 297.661 83.6102 297.922C84.0116 298.174 84.4549 298.3 84.9402 298.3C85.4256 298.3 85.8689 298.169 86.2702 297.908C86.6716 297.647 86.9936 297.292 87.2362 296.844C87.4789 296.387 87.6002 295.892 87.6002 295.36C87.6002 294.819 87.4789 294.324 87.2362 293.876C86.9936 293.428 86.6716 293.073 86.2702 292.812C85.8689 292.551 85.4256 292.42 84.9402 292.42C84.4549 292.42 84.0116 292.555 83.6102 292.826C83.2182 293.097 82.9009 293.456 82.6582 293.904C82.4156 294.343 82.2942 294.837 82.2942 295.388ZM93.7268 299V291.706H94.6788V299H93.7268ZM93.7268 290.18V288.78H94.6788V290.18H93.7268ZM100.276 298.65C100.201 298.678 100.084 298.729 99.9256 298.804C99.7669 298.879 99.5756 298.944 99.3516 299C99.1276 299.056 98.8849 299.084 98.6236 299.084C98.3529 299.084 98.0963 299.033 97.8536 298.93C97.6203 298.827 97.4336 298.673 97.2936 298.468C97.1536 298.253 97.0836 297.992 97.0836 297.684V292.462H96.0756V291.706H97.0836V289.242H98.0356V291.706H99.7156V292.462H98.0356V297.418C98.0543 297.679 98.1476 297.875 98.3156 298.006C98.4929 298.137 98.6936 298.202 98.9176 298.202C99.1789 298.202 99.4169 298.16 99.6316 298.076C99.8463 297.983 99.9769 297.917 100.024 297.88L100.276 298.65ZM104.492 299.14C103.969 299.14 103.484 299.042 103.036 298.846C102.588 298.641 102.201 298.365 101.874 298.02C101.547 297.665 101.291 297.259 101.104 296.802C100.927 296.345 100.838 295.855 100.838 295.332C100.838 294.651 100.992 294.025 101.3 293.456C101.617 292.887 102.051 292.434 102.602 292.098C103.153 291.753 103.778 291.58 104.478 291.58C105.197 291.58 105.822 291.753 106.354 292.098C106.895 292.443 107.32 292.901 107.628 293.47C107.936 294.03 108.09 294.646 108.09 295.318C108.09 295.393 108.09 295.467 108.09 295.542C108.09 295.607 108.085 295.659 108.076 295.696H101.832C101.879 296.219 102.023 296.685 102.266 297.096C102.518 297.497 102.84 297.819 103.232 298.062C103.633 298.295 104.067 298.412 104.534 298.412C105.01 298.412 105.458 298.291 105.878 298.048C106.307 297.805 106.606 297.488 106.774 297.096L107.6 297.32C107.451 297.665 107.222 297.978 106.914 298.258C106.606 298.538 106.242 298.757 105.822 298.916C105.411 299.065 104.968 299.14 104.492 299.14ZM101.804 295.01H107.194C107.157 294.478 107.012 294.011 106.76 293.61C106.517 293.209 106.195 292.896 105.794 292.672C105.402 292.439 104.968 292.322 104.492 292.322C104.016 292.322 103.582 292.439 103.19 292.672C102.798 292.896 102.476 293.213 102.224 293.624C101.981 294.025 101.841 294.487 101.804 295.01ZM120.409 299H119.457V294.926C119.457 294.077 119.321 293.451 119.051 293.05C118.78 292.649 118.379 292.448 117.847 292.448C117.296 292.448 116.801 292.644 116.363 293.036C115.933 293.428 115.63 293.932 115.453 294.548V299H114.501V294.926C114.501 294.067 114.37 293.442 114.109 293.05C113.847 292.649 113.446 292.448 112.905 292.448C112.363 292.448 111.873 292.639 111.435 293.022C110.996 293.405 110.688 293.909 110.511 294.534V299H109.559V291.706H110.427V293.358C110.735 292.789 111.127 292.35 111.603 292.042C112.088 291.734 112.625 291.58 113.213 291.58C113.819 291.58 114.309 291.753 114.683 292.098C115.056 292.443 115.285 292.896 115.369 293.456C115.705 292.84 116.106 292.373 116.573 292.056C117.049 291.739 117.585 291.58 118.183 291.58C118.593 291.58 118.939 291.655 119.219 291.804C119.508 291.953 119.737 292.168 119.905 292.448C120.082 292.719 120.208 293.05 120.283 293.442C120.367 293.825 120.409 294.254 120.409 294.73V299ZM124.818 299.14C124.221 299.14 123.665 299.042 123.152 298.846C122.639 298.65 122.195 298.351 121.822 297.95L122.214 297.278C122.625 297.661 123.035 297.941 123.446 298.118C123.866 298.286 124.309 298.37 124.776 298.37C125.345 298.37 125.807 298.258 126.162 298.034C126.517 297.801 126.694 297.469 126.694 297.04C126.694 296.751 126.605 296.531 126.428 296.382C126.26 296.223 126.013 296.097 125.686 296.004C125.369 295.901 124.986 295.794 124.538 295.682C124.034 295.542 123.609 295.397 123.264 295.248C122.928 295.089 122.671 294.893 122.494 294.66C122.326 294.417 122.242 294.105 122.242 293.722C122.242 293.246 122.359 292.854 122.592 292.546C122.835 292.229 123.161 291.991 123.572 291.832C123.992 291.664 124.459 291.58 124.972 291.58C125.532 291.58 126.027 291.669 126.456 291.846C126.885 292.023 127.235 292.271 127.506 292.588L127.044 293.232C126.783 292.933 126.47 292.714 126.106 292.574C125.751 292.425 125.355 292.35 124.916 292.35C124.617 292.35 124.333 292.392 124.062 292.476C123.791 292.551 123.567 292.681 123.39 292.868C123.222 293.045 123.138 293.293 123.138 293.61C123.138 293.871 123.203 294.077 123.334 294.226C123.465 294.366 123.661 294.487 123.922 294.59C124.183 294.683 124.505 294.786 124.888 294.898C125.439 295.047 125.919 295.201 126.33 295.36C126.741 295.509 127.058 295.705 127.282 295.948C127.506 296.191 127.618 296.531 127.618 296.97C127.618 297.651 127.361 298.183 126.848 298.566C126.335 298.949 125.658 299.14 124.818 299.14ZM136.26 298.65C136.185 298.678 136.069 298.729 135.91 298.804C135.751 298.879 135.56 298.944 135.336 299C135.112 299.056 134.869 299.084 134.608 299.084C134.337 299.084 134.081 299.033 133.838 298.93C133.605 298.827 133.418 298.673 133.278 298.468C133.138 298.253 133.068 297.992 133.068 297.684V292.462H132.06V291.706H133.068V289.242H134.02V291.706H135.7V292.462H134.02V297.418C134.039 297.679 134.132 297.875 134.3 298.006C134.477 298.137 134.678 298.202 134.902 298.202C135.163 298.202 135.401 298.16 135.616 298.076C135.831 297.983 135.961 297.917 136.008 297.88L136.26 298.65ZM140.434 299.14C139.912 299.14 139.426 299.042 138.978 298.846C138.54 298.641 138.157 298.365 137.83 298.02C137.513 297.665 137.266 297.264 137.088 296.816C136.911 296.359 136.822 295.878 136.822 295.374C136.822 294.851 136.911 294.366 137.088 293.918C137.266 293.461 137.518 293.059 137.844 292.714C138.171 292.359 138.554 292.084 138.992 291.888C139.44 291.683 139.926 291.58 140.448 291.58C140.971 291.58 141.452 291.683 141.89 291.888C142.329 292.084 142.712 292.359 143.038 292.714C143.365 293.059 143.617 293.461 143.794 293.918C143.972 294.366 144.06 294.851 144.06 295.374C144.06 295.878 143.972 296.359 143.794 296.816C143.617 297.264 143.365 297.665 143.038 298.02C142.721 298.365 142.338 298.641 141.89 298.846C141.452 299.042 140.966 299.14 140.434 299.14ZM137.788 295.388C137.788 295.929 137.905 296.424 138.138 296.872C138.381 297.311 138.703 297.661 139.104 297.922C139.506 298.174 139.949 298.3 140.434 298.3C140.92 298.3 141.363 298.169 141.764 297.908C142.166 297.647 142.488 297.292 142.73 296.844C142.973 296.387 143.094 295.892 143.094 295.36C143.094 294.819 142.973 294.324 142.73 293.876C142.488 293.428 142.166 293.073 141.764 292.812C141.363 292.551 140.92 292.42 140.434 292.42C139.949 292.42 139.506 292.555 139.104 292.826C138.712 293.097 138.395 293.456 138.152 293.904C137.91 294.343 137.788 294.837 137.788 295.388ZM151.008 299L148.054 291.706H149.048L151.54 298.048L154.046 291.706H154.984L152.03 299H151.008ZM156.303 299V291.706H157.255V299H156.303ZM156.303 290.18V288.78H157.255V290.18H156.303ZM162.502 299.14C161.979 299.14 161.494 299.042 161.046 298.846C160.598 298.641 160.21 298.365 159.884 298.02C159.557 297.665 159.3 297.259 159.114 296.802C158.936 296.345 158.848 295.855 158.848 295.332C158.848 294.651 159.002 294.025 159.31 293.456C159.627 292.887 160.061 292.434 160.612 292.098C161.162 291.753 161.788 291.58 162.488 291.58C163.206 291.58 163.832 291.753 164.364 292.098C164.905 292.443 165.33 292.901 165.638 293.47C165.946 294.03 166.1 294.646 166.1 295.318C166.1 295.393 166.1 295.467 166.1 295.542C166.1 295.607 166.095 295.659 166.086 295.696H159.842C159.888 296.219 160.033 296.685 160.276 297.096C160.528 297.497 160.85 297.819 161.242 298.062C161.643 298.295 162.077 298.412 162.544 298.412C163.02 298.412 163.468 298.291 163.888 298.048C164.317 297.805 164.616 297.488 164.784 297.096L165.61 297.32C165.46 297.665 165.232 297.978 164.924 298.258C164.616 298.538 164.252 298.757 163.832 298.916C163.421 299.065 162.978 299.14 162.502 299.14ZM159.814 295.01H165.204C165.166 294.478 165.022 294.011 164.77 293.61C164.527 293.209 164.205 292.896 163.804 292.672C163.412 292.439 162.978 292.322 162.502 292.322C162.026 292.322 161.592 292.439 161.2 292.672C160.808 292.896 160.486 293.213 160.234 293.624C159.991 294.025 159.851 294.487 159.814 295.01ZM176.561 291.706H177.499L174.363 299H173.537L172.011 295.374L170.499 299H169.673L166.537 291.706H167.461L170.121 298.02L171.465 294.73L170.233 291.72H171.087L172.011 294.086L172.949 291.72H173.789L172.571 294.73L173.915 298.02L176.561 291.706ZM177.908 300.134L178.146 298.958H177.824V297.628H178.748V298.958L178.398 300.134H177.908ZM188.191 299.14C187.584 299.14 187.038 298.981 186.553 298.664C186.077 298.347 185.699 297.955 185.419 297.488V301.982H184.467V291.706H185.321V293.12C185.61 292.663 185.998 292.294 186.483 292.014C186.968 291.725 187.486 291.58 188.037 291.58C188.541 291.58 189.003 291.687 189.423 291.902C189.843 292.107 190.207 292.387 190.515 292.742C190.823 293.097 191.061 293.503 191.229 293.96C191.406 294.408 191.495 294.875 191.495 295.36C191.495 296.041 191.355 296.671 191.075 297.25C190.804 297.819 190.422 298.277 189.927 298.622C189.432 298.967 188.854 299.14 188.191 299.14ZM187.925 298.3C188.326 298.3 188.686 298.221 189.003 298.062C189.32 297.894 189.591 297.67 189.815 297.39C190.048 297.11 190.226 296.797 190.347 296.452C190.468 296.097 190.529 295.733 190.529 295.36C190.529 294.968 190.459 294.595 190.319 294.24C190.188 293.885 189.997 293.573 189.745 293.302C189.493 293.031 189.204 292.817 188.877 292.658C188.55 292.499 188.196 292.42 187.813 292.42C187.57 292.42 187.318 292.467 187.057 292.56C186.796 292.653 186.544 292.789 186.301 292.966C186.068 293.134 185.872 293.325 185.713 293.54C185.554 293.755 185.456 293.983 185.419 294.226V296.466C185.568 296.811 185.769 297.124 186.021 297.404C186.273 297.675 186.562 297.894 186.889 298.062C187.225 298.221 187.57 298.3 187.925 298.3ZM193.15 288.78H194.102V297.348C194.102 297.712 194.167 297.95 194.298 298.062C194.428 298.174 194.587 298.23 194.774 298.23C194.942 298.23 195.11 298.211 195.278 298.174C195.446 298.137 195.59 298.099 195.712 298.062L195.88 298.832C195.702 298.907 195.483 298.967 195.222 299.014C194.97 299.061 194.75 299.084 194.564 299.084C194.134 299.084 193.789 298.958 193.528 298.706C193.276 298.454 193.15 298.109 193.15 297.67V288.78ZM200.072 299.14C199.549 299.14 199.064 299.042 198.616 298.846C198.168 298.641 197.781 298.365 197.454 298.02C197.127 297.665 196.871 297.259 196.684 296.802C196.507 296.345 196.418 295.855 196.418 295.332C196.418 294.651 196.572 294.025 196.88 293.456C197.197 292.887 197.631 292.434 198.182 292.098C198.733 291.753 199.358 291.58 200.058 291.58C200.777 291.58 201.402 291.753 201.934 292.098C202.475 292.443 202.9 292.901 203.208 293.47C203.516 294.03 203.67 294.646 203.67 295.318C203.67 295.393 203.67 295.467 203.67 295.542C203.67 295.607 203.665 295.659 203.656 295.696H197.412C197.459 296.219 197.603 296.685 197.846 297.096C198.098 297.497 198.42 297.819 198.812 298.062C199.213 298.295 199.647 298.412 200.114 298.412C200.59 298.412 201.038 298.291 201.458 298.048C201.887 297.805 202.186 297.488 202.354 297.096L203.18 297.32C203.031 297.665 202.802 297.978 202.494 298.258C202.186 298.538 201.822 298.757 201.402 298.916C200.991 299.065 200.548 299.14 200.072 299.14ZM197.384 295.01H202.774C202.737 294.478 202.592 294.011 202.34 293.61C202.097 293.209 201.775 292.896 201.374 292.672C200.982 292.439 200.548 292.322 200.072 292.322C199.596 292.322 199.162 292.439 198.77 292.672C198.378 292.896 198.056 293.213 197.804 293.624C197.561 294.025 197.421 294.487 197.384 295.01ZM204.551 296.9C204.551 296.443 204.682 296.051 204.943 295.724C205.204 295.388 205.564 295.131 206.021 294.954C206.488 294.767 207.024 294.674 207.631 294.674C207.986 294.674 208.354 294.702 208.737 294.758C209.12 294.814 209.46 294.898 209.759 295.01V294.394C209.759 293.778 209.577 293.288 209.213 292.924C208.849 292.56 208.345 292.378 207.701 292.378C207.309 292.378 206.922 292.453 206.539 292.602C206.166 292.742 205.774 292.952 205.363 293.232L204.999 292.56C205.475 292.233 205.942 291.991 206.399 291.832C206.856 291.664 207.323 291.58 207.799 291.58C208.695 291.58 209.404 291.837 209.927 292.35C210.45 292.863 210.711 293.573 210.711 294.478V297.852C210.711 297.983 210.739 298.081 210.795 298.146C210.851 298.202 210.94 298.235 211.061 298.244V299C210.958 299.009 210.87 299.019 210.795 299.028C210.72 299.037 210.664 299.037 210.627 299.028C210.394 299.019 210.216 298.944 210.095 298.804C209.974 298.664 209.908 298.515 209.899 298.356L209.885 297.824C209.558 298.244 209.134 298.571 208.611 298.804C208.088 299.028 207.556 299.14 207.015 299.14C206.548 299.14 206.124 299.042 205.741 298.846C205.368 298.641 205.074 298.37 204.859 298.034C204.654 297.689 204.551 297.311 204.551 296.9ZM209.437 297.46C209.54 297.329 209.619 297.203 209.675 297.082C209.731 296.961 209.759 296.853 209.759 296.76V295.696C209.442 295.575 209.11 295.481 208.765 295.416C208.429 295.351 208.088 295.318 207.743 295.318C207.062 295.318 206.511 295.453 206.091 295.724C205.671 295.995 205.461 296.363 205.461 296.83C205.461 297.101 205.531 297.357 205.671 297.6C205.811 297.833 206.016 298.029 206.287 298.188C206.558 298.337 206.875 298.412 207.239 298.412C207.696 298.412 208.121 298.323 208.513 298.146C208.914 297.969 209.222 297.74 209.437 297.46ZM215.162 299.14C214.564 299.14 214.009 299.042 213.496 298.846C212.982 298.65 212.539 298.351 212.166 297.95L212.558 297.278C212.968 297.661 213.379 297.941 213.79 298.118C214.21 298.286 214.653 298.37 215.12 298.37C215.689 298.37 216.151 298.258 216.506 298.034C216.86 297.801 217.038 297.469 217.038 297.04C217.038 296.751 216.949 296.531 216.772 296.382C216.604 296.223 216.356 296.097 216.03 296.004C215.712 295.901 215.33 295.794 214.882 295.682C214.378 295.542 213.953 295.397 213.608 295.248C213.272 295.089 213.015 294.893 212.838 294.66C212.67 294.417 212.586 294.105 212.586 293.722C212.586 293.246 212.702 292.854 212.936 292.546C213.178 292.229 213.505 291.991 213.916 291.832C214.336 291.664 214.802 291.58 215.316 291.58C215.876 291.58 216.37 291.669 216.8 291.846C217.229 292.023 217.579 292.271 217.85 292.588L217.388 293.232C217.126 292.933 216.814 292.714 216.45 292.574C216.095 292.425 215.698 292.35 215.26 292.35C214.961 292.35 214.676 292.392 214.406 292.476C214.135 292.551 213.911 292.681 213.734 292.868C213.566 293.045 213.482 293.293 213.482 293.61C213.482 293.871 213.547 294.077 213.678 294.226C213.808 294.366 214.004 294.487 214.266 294.59C214.527 294.683 214.849 294.786 215.232 294.898C215.782 295.047 216.263 295.201 216.674 295.36C217.084 295.509 217.402 295.705 217.626 295.948C217.85 296.191 217.962 296.531 217.962 296.97C217.962 297.651 217.705 298.183 217.192 298.566C216.678 298.949 216.002 299.14 215.162 299.14ZM222.685 299.14C222.163 299.14 221.677 299.042 221.229 298.846C220.781 298.641 220.394 298.365 220.067 298.02C219.741 297.665 219.484 297.259 219.297 296.802C219.12 296.345 219.031 295.855 219.031 295.332C219.031 294.651 219.185 294.025 219.493 293.456C219.811 292.887 220.245 292.434 220.795 292.098C221.346 291.753 221.971 291.58 222.671 291.58C223.39 291.58 224.015 291.753 224.547 292.098C225.089 292.443 225.513 292.901 225.821 293.47C226.129 294.03 226.283 294.646 226.283 295.318C226.283 295.393 226.283 295.467 226.283 295.542C226.283 295.607 226.279 295.659 226.269 295.696H220.025C220.072 296.219 220.217 296.685 220.459 297.096C220.711 297.497 221.033 297.819 221.425 298.062C221.827 298.295 222.261 298.412 222.727 298.412C223.203 298.412 223.651 298.291 224.071 298.048C224.501 297.805 224.799 297.488 224.967 297.096L225.793 297.32C225.644 297.665 225.415 297.978 225.107 298.258C224.799 298.538 224.435 298.757 224.015 298.916C223.605 299.065 223.161 299.14 222.685 299.14ZM219.997 295.01H225.387C225.35 294.478 225.205 294.011 224.953 293.61C224.711 293.209 224.389 292.896 223.987 292.672C223.595 292.439 223.161 292.322 222.685 292.322C222.209 292.322 221.775 292.439 221.383 292.672C220.991 292.896 220.669 293.213 220.417 293.624C220.175 294.025 220.035 294.487 219.997 295.01ZM234.485 299.14C233.953 299.14 233.463 299.042 233.015 298.846C232.576 298.641 232.189 298.361 231.853 298.006C231.526 297.651 231.269 297.245 231.083 296.788C230.905 296.331 230.817 295.845 230.817 295.332C230.817 294.641 230.971 294.011 231.279 293.442C231.587 292.873 232.016 292.42 232.567 292.084C233.117 291.748 233.752 291.58 234.471 291.58C235.152 291.58 235.754 291.739 236.277 292.056C236.799 292.364 237.187 292.784 237.439 293.316L236.515 293.61C236.309 293.237 236.02 292.947 235.647 292.742C235.283 292.527 234.877 292.42 234.429 292.42C233.943 292.42 233.5 292.546 233.099 292.798C232.697 293.05 232.375 293.395 232.133 293.834C231.899 294.273 231.783 294.772 231.783 295.332C231.783 295.883 231.904 296.382 232.147 296.83C232.389 297.278 232.711 297.637 233.113 297.908C233.514 298.169 233.957 298.3 234.443 298.3C234.76 298.3 235.063 298.244 235.353 298.132C235.651 298.02 235.908 297.871 236.123 297.684C236.347 297.488 236.496 297.278 236.571 297.054L237.509 297.334C237.378 297.679 237.159 297.992 236.851 298.272C236.552 298.543 236.197 298.757 235.787 298.916C235.385 299.065 234.951 299.14 234.485 299.14ZM245.136 299H244.184V294.926C244.184 294.105 244.039 293.489 243.75 293.078C243.461 292.658 243.045 292.448 242.504 292.448C242.149 292.448 241.795 292.541 241.44 292.728C241.095 292.905 240.787 293.153 240.516 293.47C240.255 293.778 240.068 294.133 239.956 294.534V299H239.004V288.78H239.956V293.358C240.245 292.817 240.647 292.387 241.16 292.07C241.683 291.743 242.238 291.58 242.826 291.58C243.246 291.58 243.601 291.655 243.89 291.804C244.189 291.953 244.427 292.173 244.604 292.462C244.791 292.742 244.926 293.073 245.01 293.456C245.094 293.829 245.136 294.254 245.136 294.73V299ZM250.316 299.14C249.794 299.14 249.308 299.042 248.86 298.846C248.412 298.641 248.025 298.365 247.698 298.02C247.372 297.665 247.115 297.259 246.928 296.802C246.751 296.345 246.662 295.855 246.662 295.332C246.662 294.651 246.816 294.025 247.124 293.456C247.442 292.887 247.876 292.434 248.426 292.098C248.977 291.753 249.602 291.58 250.302 291.58C251.021 291.58 251.646 291.753 252.178 292.098C252.72 292.443 253.144 292.901 253.452 293.47C253.76 294.03 253.914 294.646 253.914 295.318C253.914 295.393 253.914 295.467 253.914 295.542C253.914 295.607 253.91 295.659 253.9 295.696H247.656C247.703 296.219 247.848 296.685 248.09 297.096C248.342 297.497 248.664 297.819 249.056 298.062C249.458 298.295 249.892 298.412 250.358 298.412C250.834 298.412 251.282 298.291 251.702 298.048C252.132 297.805 252.43 297.488 252.598 297.096L253.424 297.32C253.275 297.665 253.046 297.978 252.738 298.258C252.43 298.538 252.066 298.757 251.646 298.916C251.236 299.065 250.792 299.14 250.316 299.14ZM247.628 295.01H253.018C252.981 294.478 252.836 294.011 252.584 293.61C252.342 293.209 252.02 292.896 251.618 292.672C251.226 292.439 250.792 292.322 250.316 292.322C249.84 292.322 249.406 292.439 249.014 292.672C248.622 292.896 248.3 293.213 248.048 293.624C247.806 294.025 247.666 294.487 247.628 295.01ZM258.547 299.14C258.015 299.14 257.525 299.042 257.077 298.846C256.638 298.641 256.251 298.361 255.915 298.006C255.588 297.651 255.332 297.245 255.145 296.788C254.968 296.331 254.879 295.845 254.879 295.332C254.879 294.641 255.033 294.011 255.341 293.442C255.649 292.873 256.078 292.42 256.629 292.084C257.18 291.748 257.814 291.58 258.533 291.58C259.214 291.58 259.816 291.739 260.339 292.056C260.862 292.364 261.249 292.784 261.501 293.316L260.577 293.61C260.372 293.237 260.082 292.947 259.709 292.742C259.345 292.527 258.939 292.42 258.491 292.42C258.006 292.42 257.562 292.546 257.161 292.798C256.76 293.05 256.438 293.395 256.195 293.834C255.962 294.273 255.845 294.772 255.845 295.332C255.845 295.883 255.966 296.382 256.209 296.83C256.452 297.278 256.774 297.637 257.175 297.908C257.576 298.169 258.02 298.3 258.505 298.3C258.822 298.3 259.126 298.244 259.415 298.132C259.714 298.02 259.97 297.871 260.185 297.684C260.409 297.488 260.558 297.278 260.633 297.054L261.571 297.334C261.44 297.679 261.221 297.992 260.913 298.272C260.614 298.543 260.26 298.757 259.849 298.916C259.448 299.065 259.014 299.14 258.547 299.14ZM268.275 299L265.573 295.262L264.019 296.718V299H263.067V288.78H264.019V295.696L268.149 291.72H269.199L266.217 294.702L269.311 299H268.275ZM67.3264 314.65C67.2517 314.678 67.135 314.729 66.9764 314.804C66.8177 314.879 66.6264 314.944 66.4024 315C66.1784 315.056 65.9357 315.084 65.6744 315.084C65.4037 315.084 65.147 315.033 64.9044 314.93C64.671 314.827 64.4844 314.673 64.3444 314.468C64.2044 314.253 64.1344 313.992 64.1344 313.684V308.462H63.1264V307.706H64.1344V305.242H65.0864V307.706H66.7664V308.462H65.0864V313.418C65.105 313.679 65.1984 313.875 65.3664 314.006C65.5437 314.137 65.7444 314.202 65.9684 314.202C66.2297 314.202 66.4677 314.16 66.6824 314.076C66.897 313.983 67.0277 313.917 67.0744 313.88L67.3264 314.65ZM74.6478 315H73.6958V310.926C73.6958 310.105 73.5512 309.489 73.2618 309.078C72.9725 308.658 72.5572 308.448 72.0158 308.448C71.6612 308.448 71.3065 308.541 70.9518 308.728C70.6065 308.905 70.2985 309.153 70.0278 309.47C69.7665 309.778 69.5798 310.133 69.4678 310.534V315H68.5158V304.78H69.4678V309.358C69.7572 308.817 70.1585 308.387 70.6718 308.07C71.1945 307.743 71.7498 307.58 72.3378 307.58C72.7578 307.58 73.1125 307.655 73.4018 307.804C73.7005 307.953 73.9385 308.173 74.1158 308.462C74.3025 308.742 74.4378 309.073 74.5218 309.456C74.6058 309.829 74.6478 310.254 74.6478 310.73V315ZM76.6779 315V307.706H77.6299V315H76.6779ZM76.6779 306.18V304.78H77.6299V306.18H76.6779ZM82.1208 315.14C81.5234 315.14 80.9681 315.042 80.4548 314.846C79.9414 314.65 79.4981 314.351 79.1248 313.95L79.5168 313.278C79.9274 313.661 80.3381 313.941 80.7488 314.118C81.1688 314.286 81.6121 314.37 82.0788 314.37C82.6481 314.37 83.1101 314.258 83.4648 314.034C83.8194 313.801 83.9968 313.469 83.9968 313.04C83.9968 312.751 83.9081 312.531 83.7308 312.382C83.5628 312.223 83.3154 312.097 82.9888 312.004C82.6714 311.901 82.2888 311.794 81.8408 311.682C81.3368 311.542 80.9121 311.397 80.5668 311.248C80.2308 311.089 79.9741 310.893 79.7968 310.66C79.6288 310.417 79.5448 310.105 79.5448 309.722C79.5448 309.246 79.6614 308.854 79.8948 308.546C80.1374 308.229 80.4641 307.991 80.8748 307.832C81.2948 307.664 81.7614 307.58 82.2748 307.58C82.8348 307.58 83.3294 307.669 83.7588 307.846C84.1881 308.023 84.5381 308.271 84.8088 308.588L84.3468 309.232C84.0854 308.933 83.7728 308.714 83.4088 308.574C83.0541 308.425 82.6574 308.35 82.2188 308.35C81.9201 308.35 81.6354 308.392 81.3648 308.476C81.0941 308.551 80.8701 308.681 80.6928 308.868C80.5248 309.045 80.4408 309.293 80.4408 309.61C80.4408 309.871 80.5061 310.077 80.6368 310.226C80.7674 310.366 80.9634 310.487 81.2248 310.59C81.4861 310.683 81.8081 310.786 82.1908 310.898C82.7414 311.047 83.2221 311.201 83.6328 311.36C84.0434 311.509 84.3608 311.705 84.5848 311.948C84.8088 312.191 84.9208 312.531 84.9208 312.97C84.9208 313.651 84.6641 314.183 84.1508 314.566C83.6374 314.949 82.9608 315.14 82.1208 315.14ZM93.7867 315.14C93.18 315.14 92.634 314.981 92.1487 314.664C91.6727 314.347 91.2947 313.955 91.0147 313.488V317.982H90.0627V307.706H90.9167V309.12C91.206 308.663 91.5934 308.294 92.0787 308.014C92.564 307.725 93.082 307.58 93.6327 307.58C94.1367 307.58 94.5987 307.687 95.0187 307.902C95.4387 308.107 95.8027 308.387 96.1107 308.742C96.4187 309.097 96.6567 309.503 96.8247 309.96C97.002 310.408 97.0907 310.875 97.0907 311.36C97.0907 312.041 96.9507 312.671 96.6707 313.25C96.4 313.819 96.0174 314.277 95.5227 314.622C95.028 314.967 94.4494 315.14 93.7867 315.14ZM93.5207 314.3C93.922 314.3 94.2814 314.221 94.5987 314.062C94.916 313.894 95.1867 313.67 95.4107 313.39C95.644 313.11 95.8214 312.797 95.9427 312.452C96.064 312.097 96.1247 311.733 96.1247 311.36C96.1247 310.968 96.0547 310.595 95.9147 310.24C95.784 309.885 95.5927 309.573 95.3407 309.302C95.0887 309.031 94.7994 308.817 94.4727 308.658C94.146 308.499 93.7914 308.42 93.4087 308.42C93.166 308.42 92.914 308.467 92.6527 308.56C92.3914 308.653 92.1394 308.789 91.8967 308.966C91.6634 309.134 91.4674 309.325 91.3087 309.54C91.15 309.755 91.052 309.983 91.0147 310.226V312.466C91.164 312.811 91.3647 313.124 91.6167 313.404C91.8687 313.675 92.158 313.894 92.4847 314.062C92.8207 314.221 93.166 314.3 93.5207 314.3ZM98.1153 312.9C98.1153 312.443 98.246 312.051 98.5073 311.724C98.7687 311.388 99.128 311.131 99.5853 310.954C100.052 310.767 100.589 310.674 101.195 310.674C101.55 310.674 101.919 310.702 102.301 310.758C102.684 310.814 103.025 310.898 103.323 311.01V310.394C103.323 309.778 103.141 309.288 102.777 308.924C102.413 308.56 101.909 308.378 101.265 308.378C100.873 308.378 100.486 308.453 100.103 308.602C99.73 308.742 99.338 308.952 98.9273 309.232L98.5633 308.56C99.0393 308.233 99.506 307.991 99.9633 307.832C100.421 307.664 100.887 307.58 101.363 307.58C102.259 307.58 102.969 307.837 103.491 308.35C104.014 308.863 104.275 309.573 104.275 310.478V313.852C104.275 313.983 104.303 314.081 104.359 314.146C104.415 314.202 104.504 314.235 104.625 314.244V315C104.523 315.009 104.434 315.019 104.359 315.028C104.285 315.037 104.229 315.037 104.191 315.028C103.958 315.019 103.781 314.944 103.659 314.804C103.538 314.664 103.473 314.515 103.463 314.356L103.449 313.824C103.123 314.244 102.698 314.571 102.175 314.804C101.653 315.028 101.121 315.14 100.579 315.14C100.113 315.14 99.688 315.042 99.3053 314.846C98.932 314.641 98.638 314.37 98.4233 314.034C98.218 313.689 98.1153 313.311 98.1153 312.9ZM103.001 313.46C103.104 313.329 103.183 313.203 103.239 313.082C103.295 312.961 103.323 312.853 103.323 312.76V311.696C103.006 311.575 102.675 311.481 102.329 311.416C101.993 311.351 101.653 311.318 101.307 311.318C100.626 311.318 100.075 311.453 99.6553 311.724C99.2353 311.995 99.0253 312.363 99.0253 312.83C99.0253 313.101 99.0953 313.357 99.2353 313.6C99.3753 313.833 99.5807 314.029 99.8513 314.188C100.122 314.337 100.439 314.412 100.803 314.412C101.261 314.412 101.685 314.323 102.077 314.146C102.479 313.969 102.787 313.74 103.001 313.46ZM109.258 315.098C108.764 315.098 108.306 314.995 107.886 314.79C107.466 314.585 107.102 314.309 106.794 313.964C106.496 313.609 106.262 313.208 106.094 312.76C105.926 312.312 105.842 311.85 105.842 311.374C105.842 310.861 105.922 310.38 106.08 309.932C106.248 309.475 106.482 309.069 106.78 308.714C107.088 308.359 107.448 308.084 107.858 307.888C108.269 307.683 108.726 307.58 109.23 307.58C109.856 307.58 110.397 307.739 110.854 308.056C111.321 308.373 111.713 308.765 112.03 309.232V307.706H112.884V315.028C112.884 315.7 112.721 316.265 112.394 316.722C112.077 317.189 111.643 317.539 111.092 317.772C110.551 318.005 109.958 318.122 109.314 318.122C108.484 318.122 107.812 317.973 107.298 317.674C106.785 317.375 106.365 316.974 106.038 316.47L106.626 316.008C106.916 316.465 107.298 316.806 107.774 317.03C108.26 317.254 108.773 317.366 109.314 317.366C109.79 317.366 110.224 317.277 110.616 317.1C111.018 316.932 111.335 316.675 111.568 316.33C111.811 315.985 111.932 315.551 111.932 315.028V313.586C111.652 314.043 111.27 314.412 110.784 314.692C110.299 314.963 109.79 315.098 109.258 315.098ZM109.524 314.3C109.814 314.3 110.089 314.249 110.35 314.146C110.621 314.043 110.868 313.908 111.092 313.74C111.316 313.563 111.503 313.367 111.652 313.152C111.802 312.937 111.895 312.718 111.932 312.494V310.24C111.792 309.885 111.592 309.573 111.33 309.302C111.069 309.022 110.77 308.807 110.434 308.658C110.108 308.499 109.767 308.42 109.412 308.42C109.002 308.42 108.633 308.509 108.306 308.686C107.989 308.854 107.718 309.083 107.494 309.372C107.28 309.652 107.112 309.969 106.99 310.324C106.869 310.679 106.808 311.033 106.808 311.388C106.808 311.78 106.878 312.153 107.018 312.508C107.158 312.853 107.35 313.166 107.592 313.446C107.844 313.717 108.134 313.927 108.46 314.076C108.796 314.225 109.151 314.3 109.524 314.3ZM118.137 315.14C117.614 315.14 117.129 315.042 116.681 314.846C116.233 314.641 115.845 314.365 115.519 314.02C115.192 313.665 114.935 313.259 114.749 312.802C114.571 312.345 114.483 311.855 114.483 311.332C114.483 310.651 114.637 310.025 114.945 309.456C115.262 308.887 115.696 308.434 116.247 308.098C116.797 307.753 117.423 307.58 118.123 307.58C118.841 307.58 119.467 307.753 119.999 308.098C120.54 308.443 120.965 308.901 121.273 309.47C121.581 310.03 121.735 310.646 121.735 311.318C121.735 311.393 121.735 311.467 121.735 311.542C121.735 311.607 121.73 311.659 121.721 311.696H115.477C115.523 312.219 115.668 312.685 115.911 313.096C116.163 313.497 116.485 313.819 116.877 314.062C117.278 314.295 117.712 314.412 118.179 314.412C118.655 314.412 119.103 314.291 119.523 314.048C119.952 313.805 120.251 313.488 120.419 313.096L121.245 313.32C121.095 313.665 120.867 313.978 120.559 314.258C120.251 314.538 119.887 314.757 119.467 314.916C119.056 315.065 118.613 315.14 118.137 315.14ZM115.449 311.01H120.839C120.801 310.478 120.657 310.011 120.405 309.61C120.162 309.209 119.84 308.896 119.439 308.672C119.047 308.439 118.613 308.322 118.137 308.322C117.661 308.322 117.227 308.439 116.835 308.672C116.443 308.896 116.121 309.213 115.869 309.624C115.626 310.025 115.486 310.487 115.449 311.01ZM129.166 315.14C128.568 315.14 128.013 315.042 127.5 314.846C126.986 314.65 126.543 314.351 126.17 313.95L126.562 313.278C126.972 313.661 127.383 313.941 127.794 314.118C128.214 314.286 128.657 314.37 129.124 314.37C129.693 314.37 130.155 314.258 130.51 314.034C130.864 313.801 131.042 313.469 131.042 313.04C131.042 312.751 130.953 312.531 130.776 312.382C130.608 312.223 130.36 312.097 130.034 312.004C129.716 311.901 129.334 311.794 128.886 311.682C128.382 311.542 127.957 311.397 127.612 311.248C127.276 311.089 127.019 310.893 126.842 310.66C126.674 310.417 126.59 310.105 126.59 309.722C126.59 309.246 126.706 308.854 126.94 308.546C127.182 308.229 127.509 307.991 127.92 307.832C128.34 307.664 128.806 307.58 129.32 307.58C129.88 307.58 130.374 307.669 130.804 307.846C131.233 308.023 131.583 308.271 131.854 308.588L131.392 309.232C131.13 308.933 130.818 308.714 130.454 308.574C130.099 308.425 129.702 308.35 129.264 308.35C128.965 308.35 128.68 308.392 128.41 308.476C128.139 308.551 127.915 308.681 127.738 308.868C127.57 309.045 127.486 309.293 127.486 309.61C127.486 309.871 127.551 310.077 127.682 310.226C127.812 310.366 128.008 310.487 128.27 310.59C128.531 310.683 128.853 310.786 129.236 310.898C129.786 311.047 130.267 311.201 130.678 311.36C131.088 311.509 131.406 311.705 131.63 311.948C131.854 312.191 131.966 312.531 131.966 312.97C131.966 313.651 131.709 314.183 131.196 314.566C130.682 314.949 130.006 315.14 129.166 315.14ZM136.647 315.14C136.125 315.14 135.639 315.042 135.191 314.846C134.753 314.641 134.37 314.365 134.043 314.02C133.726 313.665 133.479 313.264 133.301 312.816C133.124 312.359 133.035 311.878 133.035 311.374C133.035 310.851 133.124 310.366 133.301 309.918C133.479 309.461 133.731 309.059 134.057 308.714C134.384 308.359 134.767 308.084 135.205 307.888C135.653 307.683 136.139 307.58 136.661 307.58C137.184 307.58 137.665 307.683 138.103 307.888C138.542 308.084 138.925 308.359 139.251 308.714C139.578 309.059 139.83 309.461 140.007 309.918C140.185 310.366 140.273 310.851 140.273 311.374C140.273 311.878 140.185 312.359 140.007 312.816C139.83 313.264 139.578 313.665 139.251 314.02C138.934 314.365 138.551 314.641 138.103 314.846C137.665 315.042 137.179 315.14 136.647 315.14ZM134.001 311.388C134.001 311.929 134.118 312.424 134.351 312.872C134.594 313.311 134.916 313.661 135.317 313.922C135.719 314.174 136.162 314.3 136.647 314.3C137.133 314.3 137.576 314.169 137.977 313.908C138.379 313.647 138.701 313.292 138.943 312.844C139.186 312.387 139.307 311.892 139.307 311.36C139.307 310.819 139.186 310.324 138.943 309.876C138.701 309.428 138.379 309.073 137.977 308.812C137.576 308.551 137.133 308.42 136.647 308.42C136.162 308.42 135.719 308.555 135.317 308.826C134.925 309.097 134.608 309.456 134.365 309.904C134.123 310.343 134.001 310.837 134.001 311.388ZM144.973 315.14C144.451 315.14 143.965 315.042 143.517 314.846C143.079 314.641 142.696 314.365 142.369 314.02C142.052 313.665 141.805 313.264 141.627 312.816C141.45 312.359 141.361 311.878 141.361 311.374C141.361 310.851 141.45 310.366 141.627 309.918C141.805 309.461 142.057 309.059 142.383 308.714C142.71 308.359 143.093 308.084 143.531 307.888C143.979 307.683 144.465 307.58 144.987 307.58C145.51 307.58 145.991 307.683 146.429 307.888C146.868 308.084 147.251 308.359 147.577 308.714C147.904 309.059 148.156 309.461 148.333 309.918C148.511 310.366 148.599 310.851 148.599 311.374C148.599 311.878 148.511 312.359 148.333 312.816C148.156 313.264 147.904 313.665 147.577 314.02C147.26 314.365 146.877 314.641 146.429 314.846C145.991 315.042 145.505 315.14 144.973 315.14ZM142.327 311.388C142.327 311.929 142.444 312.424 142.677 312.872C142.92 313.311 143.242 313.661 143.643 313.922C144.045 314.174 144.488 314.3 144.973 314.3C145.459 314.3 145.902 314.169 146.303 313.908C146.705 313.647 147.027 313.292 147.269 312.844C147.512 312.387 147.633 311.892 147.633 311.36C147.633 310.819 147.512 310.324 147.269 309.876C147.027 309.428 146.705 309.073 146.303 308.812C145.902 308.551 145.459 308.42 144.973 308.42C144.488 308.42 144.045 308.555 143.643 308.826C143.251 309.097 142.934 309.456 142.691 309.904C142.449 310.343 142.327 310.837 142.327 311.388ZM156.324 315H155.372V310.926C155.372 310.067 155.246 309.442 154.994 309.05C154.742 308.649 154.345 308.448 153.804 308.448C153.43 308.448 153.062 308.541 152.698 308.728C152.334 308.905 152.012 309.153 151.732 309.47C151.461 309.778 151.265 310.133 151.144 310.534V315H150.192V307.706H151.06V309.358C151.256 309.003 151.512 308.695 151.83 308.434C152.147 308.163 152.506 307.953 152.908 307.804C153.309 307.655 153.724 307.58 154.154 307.58C154.555 307.58 154.896 307.655 155.176 307.804C155.456 307.953 155.68 308.168 155.848 308.448C156.016 308.719 156.137 309.05 156.212 309.442C156.286 309.825 156.324 310.254 156.324 310.73V315ZM161.504 315.14C160.981 315.14 160.496 315.042 160.048 314.846C159.6 314.641 159.212 314.365 158.886 314.02C158.559 313.665 158.302 313.259 158.116 312.802C157.938 312.345 157.85 311.855 157.85 311.332C157.85 310.651 158.004 310.025 158.312 309.456C158.629 308.887 159.063 308.434 159.614 308.098C160.164 307.753 160.79 307.58 161.49 307.58C162.208 307.58 162.834 307.753 163.366 308.098C163.907 308.443 164.332 308.901 164.64 309.47C164.948 310.03 165.102 310.646 165.102 311.318C165.102 311.393 165.102 311.467 165.102 311.542C165.102 311.607 165.097 311.659 165.088 311.696H158.844C158.89 312.219 159.035 312.685 159.278 313.096C159.53 313.497 159.852 313.819 160.244 314.062C160.645 314.295 161.079 314.412 161.546 314.412C162.022 314.412 162.47 314.291 162.89 314.048C163.319 313.805 163.618 313.488 163.786 313.096L164.612 313.32C164.462 313.665 164.234 313.978 163.926 314.258C163.618 314.538 163.254 314.757 162.834 314.916C162.423 315.065 161.98 315.14 161.504 315.14ZM158.816 311.01H164.206C164.168 310.478 164.024 310.011 163.772 309.61C163.529 309.209 163.207 308.896 162.806 308.672C162.414 308.439 161.98 308.322 161.504 308.322C161.028 308.322 160.594 308.439 160.202 308.672C159.81 308.896 159.488 309.213 159.236 309.624C158.993 310.025 158.853 310.487 158.816 311.01ZM170.211 308.546C169.576 308.565 169.016 308.742 168.531 309.078C168.055 309.414 167.719 309.876 167.523 310.464V315H166.571V307.706H167.467V309.456C167.719 308.943 168.05 308.527 168.461 308.21C168.881 307.893 169.324 307.715 169.791 307.678C169.884 307.669 169.963 307.664 170.029 307.664C170.103 307.664 170.164 307.669 170.211 307.678V308.546ZM177.827 315.14C177.304 315.14 176.819 315.042 176.371 314.846C175.932 314.641 175.55 314.365 175.223 314.02C174.906 313.665 174.658 313.264 174.481 312.816C174.304 312.359 174.215 311.878 174.215 311.374C174.215 310.851 174.304 310.366 174.481 309.918C174.658 309.461 174.91 309.059 175.237 308.714C175.564 308.359 175.946 308.084 176.385 307.888C176.833 307.683 177.318 307.58 177.841 307.58C178.364 307.58 178.844 307.683 179.283 307.888C179.722 308.084 180.104 308.359 180.431 308.714C180.758 309.059 181.01 309.461 181.187 309.918C181.364 310.366 181.453 310.851 181.453 311.374C181.453 311.878 181.364 312.359 181.187 312.816C181.01 313.264 180.758 313.665 180.431 314.02C180.114 314.365 179.731 314.641 179.283 314.846C178.844 315.042 178.359 315.14 177.827 315.14ZM175.181 311.388C175.181 311.929 175.298 312.424 175.531 312.872C175.774 313.311 176.096 313.661 176.497 313.922C176.898 314.174 177.342 314.3 177.827 314.3C178.312 314.3 178.756 314.169 179.157 313.908C179.558 313.647 179.88 313.292 180.123 312.844C180.366 312.387 180.487 311.892 180.487 311.36C180.487 310.819 180.366 310.324 180.123 309.876C179.88 309.428 179.558 309.073 179.157 308.812C178.756 308.551 178.312 308.42 177.827 308.42C177.342 308.42 176.898 308.555 176.497 308.826C176.105 309.097 175.788 309.456 175.545 309.904C175.302 310.343 175.181 310.837 175.181 311.388ZM186.685 308.546C186.05 308.565 185.49 308.742 185.005 309.078C184.529 309.414 184.193 309.876 183.997 310.464V315H183.045V307.706H183.941V309.456C184.193 308.943 184.524 308.527 184.935 308.21C185.355 307.893 185.798 307.715 186.265 307.678C186.358 307.669 186.438 307.664 186.503 307.664C186.578 307.664 186.638 307.669 186.685 307.678V308.546ZM191.236 304.78H192.188V313.348C192.188 313.712 192.253 313.95 192.384 314.062C192.514 314.174 192.673 314.23 192.86 314.23C193.028 314.23 193.196 314.211 193.364 314.174C193.532 314.137 193.676 314.099 193.798 314.062L193.966 314.832C193.788 314.907 193.569 314.967 193.308 315.014C193.056 315.061 192.836 315.084 192.65 315.084C192.22 315.084 191.875 314.958 191.614 314.706C191.362 314.454 191.236 314.109 191.236 313.67V304.78ZM194.42 312.9C194.42 312.443 194.551 312.051 194.812 311.724C195.073 311.388 195.433 311.131 195.89 310.954C196.357 310.767 196.893 310.674 197.5 310.674C197.855 310.674 198.223 310.702 198.606 310.758C198.989 310.814 199.329 310.898 199.628 311.01V310.394C199.628 309.778 199.446 309.288 199.082 308.924C198.718 308.56 198.214 308.378 197.57 308.378C197.178 308.378 196.791 308.453 196.408 308.602C196.035 308.742 195.643 308.952 195.232 309.232L194.868 308.56C195.344 308.233 195.811 307.991 196.268 307.832C196.725 307.664 197.192 307.58 197.668 307.58C198.564 307.58 199.273 307.837 199.796 308.35C200.319 308.863 200.58 309.573 200.58 310.478V313.852C200.58 313.983 200.608 314.081 200.664 314.146C200.72 314.202 200.809 314.235 200.93 314.244V315C200.827 315.009 200.739 315.019 200.664 315.028C200.589 315.037 200.533 315.037 200.496 315.028C200.263 315.019 200.085 314.944 199.964 314.804C199.843 314.664 199.777 314.515 199.768 314.356L199.754 313.824C199.427 314.244 199.003 314.571 198.48 314.804C197.957 315.028 197.425 315.14 196.884 315.14C196.417 315.14 195.993 315.042 195.61 314.846C195.237 314.641 194.943 314.37 194.728 314.034C194.523 313.689 194.42 313.311 194.42 312.9ZM199.306 313.46C199.409 313.329 199.488 313.203 199.544 313.082C199.6 312.961 199.628 312.853 199.628 312.76V311.696C199.311 311.575 198.979 311.481 198.634 311.416C198.298 311.351 197.957 311.318 197.612 311.318C196.931 311.318 196.38 311.453 195.96 311.724C195.54 311.995 195.33 312.363 195.33 312.83C195.33 313.101 195.4 313.357 195.54 313.6C195.68 313.833 195.885 314.029 196.156 314.188C196.427 314.337 196.744 314.412 197.108 314.412C197.565 314.412 197.99 314.323 198.382 314.146C198.783 313.969 199.091 313.74 199.306 313.46ZM206.082 314.65C206.008 314.678 205.891 314.729 205.732 314.804C205.574 314.879 205.382 314.944 205.158 315C204.934 315.056 204.692 315.084 204.43 315.084C204.16 315.084 203.903 315.033 203.66 314.93C203.427 314.827 203.24 314.673 203.1 314.468C202.96 314.253 202.89 313.992 202.89 313.684V308.462H201.882V307.706H202.89V305.242H203.842V307.706H205.522V308.462H203.842V313.418C203.861 313.679 203.954 313.875 204.122 314.006C204.3 314.137 204.5 314.202 204.724 314.202C204.986 314.202 205.224 314.16 205.438 314.076C205.653 313.983 205.784 313.917 205.83 313.88L206.082 314.65ZM210.299 315.14C209.776 315.14 209.291 315.042 208.843 314.846C208.395 314.641 208.007 314.365 207.681 314.02C207.354 313.665 207.097 313.259 206.911 312.802C206.733 312.345 206.645 311.855 206.645 311.332C206.645 310.651 206.799 310.025 207.107 309.456C207.424 308.887 207.858 308.434 208.409 308.098C208.959 307.753 209.585 307.58 210.285 307.58C211.003 307.58 211.629 307.753 212.161 308.098C212.702 308.443 213.127 308.901 213.435 309.47C213.743 310.03 213.897 310.646 213.897 311.318C213.897 311.393 213.897 311.467 213.897 311.542C213.897 311.607 213.892 311.659 213.883 311.696H207.639C207.685 312.219 207.83 312.685 208.073 313.096C208.325 313.497 208.647 313.819 209.039 314.062C209.44 314.295 209.874 314.412 210.341 314.412C210.817 314.412 211.265 314.291 211.685 314.048C212.114 313.805 212.413 313.488 212.581 313.096L213.407 313.32C213.257 313.665 213.029 313.978 212.721 314.258C212.413 314.538 212.049 314.757 211.629 314.916C211.218 315.065 210.775 315.14 210.299 315.14ZM207.611 311.01H213.001C212.963 310.478 212.819 310.011 212.567 309.61C212.324 309.209 212.002 308.896 211.601 308.672C211.209 308.439 210.775 308.322 210.299 308.322C209.823 308.322 209.389 308.439 208.997 308.672C208.605 308.896 208.283 309.213 208.031 309.624C207.788 310.025 207.648 310.487 207.611 311.01ZM219.005 308.546C218.371 308.565 217.811 308.742 217.325 309.078C216.849 309.414 216.513 309.876 216.317 310.464V315H215.365V307.706H216.261V309.456C216.513 308.943 216.845 308.527 217.255 308.21C217.675 307.893 218.119 307.715 218.585 307.678C218.679 307.669 218.758 307.664 218.823 307.664C218.898 307.664 218.959 307.669 219.005 307.678V308.546Z" fill="#747574"/>
<path d="M113.696 261.616V268H111.764V258.06H113.304L118.442 264.612V258.074H120.374V268H118.764L113.696 261.616ZM125.524 268.14C124.927 268.14 124.39 268.042 123.914 267.846C123.438 267.641 123.032 267.361 122.696 267.006C122.37 266.651 122.118 266.245 121.94 265.788C121.763 265.331 121.674 264.85 121.674 264.346C121.674 263.833 121.763 263.347 121.94 262.89C122.118 262.433 122.37 262.027 122.696 261.672C123.032 261.317 123.438 261.042 123.914 260.846C124.39 260.641 124.927 260.538 125.524 260.538C126.122 260.538 126.654 260.641 127.12 260.846C127.596 261.042 128.002 261.317 128.338 261.672C128.674 262.027 128.926 262.433 129.094 262.89C129.272 263.347 129.36 263.833 129.36 264.346C129.36 264.85 129.272 265.331 129.094 265.788C128.926 266.245 128.674 266.651 128.338 267.006C128.012 267.361 127.61 267.641 127.134 267.846C126.658 268.042 126.122 268.14 125.524 268.14ZM123.606 264.346C123.606 264.775 123.69 265.158 123.858 265.494C124.026 265.821 124.255 266.077 124.544 266.264C124.834 266.451 125.16 266.544 125.524 266.544C125.879 266.544 126.201 266.451 126.49 266.264C126.78 266.068 127.008 265.807 127.176 265.48C127.354 265.144 127.442 264.761 127.442 264.332C127.442 263.912 127.354 263.534 127.176 263.198C127.008 262.862 126.78 262.601 126.49 262.414C126.201 262.227 125.879 262.134 125.524 262.134C125.16 262.134 124.834 262.232 124.544 262.428C124.255 262.615 124.026 262.876 123.858 263.212C123.69 263.539 123.606 263.917 123.606 264.346ZM134.172 268V258.06H136.104V268H134.172ZM142.282 267.622C142.124 267.687 141.932 267.762 141.708 267.846C141.484 267.93 141.242 267.995 140.98 268.042C140.728 268.098 140.472 268.126 140.21 268.126C139.865 268.126 139.548 268.065 139.258 267.944C138.969 267.823 138.736 267.631 138.558 267.37C138.39 267.099 138.306 266.749 138.306 266.32V262.106H137.34V260.664H138.306V258.284H140.182V260.664H141.722V262.106H140.182V265.69C140.192 265.942 140.262 266.124 140.392 266.236C140.523 266.348 140.686 266.404 140.882 266.404C141.078 266.404 141.27 266.371 141.456 266.306C141.643 266.241 141.792 266.185 141.904 266.138L142.282 267.622ZM146.579 268.14C145.991 268.14 145.459 268.042 144.983 267.846C144.507 267.641 144.101 267.365 143.765 267.02C143.429 266.665 143.168 266.264 142.981 265.816C142.804 265.359 142.715 264.878 142.715 264.374C142.715 263.674 142.869 263.035 143.177 262.456C143.495 261.877 143.943 261.415 144.521 261.07C145.109 260.715 145.8 260.538 146.593 260.538C147.396 260.538 148.082 260.715 148.651 261.07C149.221 261.415 149.655 261.877 149.953 262.456C150.261 263.025 150.415 263.641 150.415 264.304C150.415 264.416 150.411 264.533 150.401 264.654C150.392 264.766 150.383 264.859 150.373 264.934H144.703C144.741 265.307 144.848 265.634 145.025 265.914C145.212 266.194 145.445 266.409 145.725 266.558C146.015 266.698 146.323 266.768 146.649 266.768C147.023 266.768 147.373 266.679 147.699 266.502C148.035 266.315 148.264 266.073 148.385 265.774L149.995 266.222C149.818 266.595 149.561 266.927 149.225 267.216C148.899 267.505 148.511 267.734 148.063 267.902C147.615 268.061 147.121 268.14 146.579 268.14ZM144.661 263.744H148.497C148.46 263.371 148.353 263.049 148.175 262.778C148.007 262.498 147.783 262.283 147.503 262.134C147.223 261.975 146.911 261.896 146.565 261.896C146.229 261.896 145.921 261.975 145.641 262.134C145.371 262.283 145.147 262.498 144.969 262.778C144.801 263.049 144.699 263.371 144.661 263.744ZM162.954 268H161.078V263.884C161.078 263.305 160.975 262.881 160.77 262.61C160.574 262.33 160.299 262.19 159.944 262.19C159.58 262.19 159.23 262.335 158.894 262.624C158.567 262.904 158.334 263.273 158.194 263.73V268H156.318V263.884C156.318 263.296 156.215 262.867 156.01 262.596C155.814 262.325 155.539 262.19 155.184 262.19C154.82 262.19 154.47 262.33 154.134 262.61C153.807 262.89 153.574 263.259 153.434 263.716V268H151.558V260.664H153.252V262.022C153.532 261.546 153.905 261.182 154.372 260.93C154.839 260.669 155.375 260.538 155.982 260.538C156.589 260.538 157.06 260.687 157.396 260.986C157.741 261.285 157.961 261.653 158.054 262.092C158.353 261.588 158.731 261.205 159.188 260.944C159.655 260.673 160.177 260.538 160.756 260.538C161.213 260.538 161.582 260.622 161.862 260.79C162.151 260.949 162.375 261.168 162.534 261.448C162.693 261.719 162.8 262.027 162.856 262.372C162.921 262.717 162.954 263.067 162.954 263.422V268ZM167.289 268.14C166.664 268.14 166.067 268.037 165.497 267.832C164.928 267.627 164.438 267.323 164.027 266.922L164.699 265.704C165.138 266.059 165.567 266.32 165.987 266.488C166.417 266.656 166.827 266.74 167.219 266.74C167.583 266.74 167.873 266.675 168.087 266.544C168.311 266.413 168.423 266.217 168.423 265.956C168.423 265.779 168.363 265.643 168.241 265.55C168.12 265.447 167.943 265.359 167.709 265.284C167.485 265.209 167.21 265.125 166.883 265.032C166.342 264.855 165.889 264.682 165.525 264.514C165.161 264.346 164.886 264.136 164.699 263.884C164.522 263.623 164.433 263.291 164.433 262.89C164.433 262.405 164.555 261.989 164.797 261.644C165.049 261.289 165.395 261.014 165.833 260.818C166.281 260.622 166.804 260.524 167.401 260.524C167.924 260.524 168.419 260.608 168.885 260.776C169.352 260.935 169.777 261.196 170.159 261.56L169.403 262.75C169.03 262.461 168.675 262.251 168.339 262.12C168.003 261.98 167.663 261.91 167.317 261.91C167.121 261.91 166.935 261.933 166.757 261.98C166.589 262.027 166.449 262.106 166.337 262.218C166.235 262.321 166.183 262.47 166.183 262.666C166.183 262.843 166.23 262.983 166.323 263.086C166.426 263.179 166.575 263.263 166.771 263.338C166.977 263.413 167.224 263.497 167.513 263.59C168.101 263.758 168.596 263.931 168.997 264.108C169.408 264.285 169.716 264.505 169.921 264.766C170.127 265.018 170.229 265.368 170.229 265.816C170.229 266.544 169.963 267.113 169.431 267.524C168.899 267.935 168.185 268.14 167.289 268.14Z" fill="#9FA0A0"/>
<defs>
<linearGradient id="paint0_linear_524_16642" x1="185.904" y1="84.4881" x2="185.904" y2="134.555" gradientUnits="userSpaceOnUse">
<stop stop-color="#BABABA"/>
<stop offset="1" stop-color="#626262"/>
</linearGradient>
<linearGradient id="paint1_linear_524_16642" x1="99.416" y1="84.4881" x2="99.416" y2="134.555" gradientUnits="userSpaceOnUse">
<stop stop-color="#BABABA"/>
<stop offset="1" stop-color="#626262"/>
</linearGradient>
<linearGradient id="paint2_linear_524_16642" x1="145.746" y1="109.522" x2="141.313" y2="152.287" gradientUnits="userSpaceOnUse">
<stop stop-color="#616161"/>
<stop offset="1" stop-color="#444444"/>
</linearGradient>
<linearGradient id="paint3_linear_524_16642" x1="140.01" y1="133.512" x2="140.01" y2="218" gradientUnits="userSpaceOnUse">
<stop stop-color="#BABABA"/>
<stop offset="1" stop-color="#626262"/>
</linearGradient>
<linearGradient id="paint4_linear_524_16642" x1="136.881" y1="181.493" x2="186.426" y2="174.191" gradientUnits="userSpaceOnUse">
<stop stop-color="#A2A2A2"/>
<stop offset="1" stop-color="#D9D9D9" stop-opacity="0"/>
</linearGradient>
<linearGradient id="paint5_linear_524_16642" x1="98.0263" y1="132.469" x2="98.0263" y2="179.928" gradientUnits="userSpaceOnUse">
<stop stop-color="#BABABA"/>
<stop offset="1" stop-color="#626262"/>
</linearGradient>
<linearGradient id="paint6_linear_524_16642" x1="183.036" y1="132.469" x2="183.036" y2="179.928" gradientUnits="userSpaceOnUse">
<stop stop-color="#BABABA"/>
<stop offset="1" stop-color="#626262"/>
</linearGradient>
<linearGradient id="paint7_linear_524_16642" x1="69.1537" y1="-1.72281" x2="69.1537" y2="21.9043" gradientUnits="userSpaceOnUse">
<stop stop-color="#B58F5A"/>
<stop offset="1" stop-color="#644F32"/>
</linearGradient>
<linearGradient id="paint8_linear_524_16642" x1="181.607" y1="46.8323" x2="181.607" y2="62.5837" gradientUnits="userSpaceOnUse">
<stop stop-color="#B58F5A"/>
<stop offset="1" stop-color="#644F32"/>
</linearGradient>
</defs>
</svg>
